<svg height="512pt" viewBox="-100 0 512 512" width="512pt" xmlns="http://www.w3.org/2000/svg"><path d="M311.2 42.1A31.5 31.5 0 0 0 284.5 11a891 891 0 0 0-129-11A941 941 0 0 0 27 11.2 31.5 31.5 0 0 0 0 42.3v366c0 4.8 3.2 9 7.8 10.2l27.4 7.4v28.6c0 5.8 4.7 10.5 10.5 10.5h219.8c5.8 0 10.5-4.7 10.5-10.5v-28.6l27.4-7.4c4.6-1.2 7.8-5.4 7.8-10.1zm0 0" fill="#c1dbd6"/><path d="M280 40a871 871 0 0 0-124.4-10.6c-45 0-97.3 6.8-124.4 10.8a2 2 0 0 0-1.8 2.1V394l35.2 9.5v21.9c0 5.7 4.6 10.3 10.3 10.3h20v65.9c0 5.8 4.6 10.5 10.4 10.5h6c5.8 0 10.5-4.7 10.5-10.5v-65.9h67.6v65.9c0 5.8 4.7 10.5 10.4 10.5h6c5.9 0 10.6-4.7 10.6-10.5v-65.9h20c5.6 0 10.2-4.6 10.2-10.3v-22l27.6-7.4c4.5-1.2 7.6-5.2 7.6-9.9V42.1c0-1-.7-2-1.8-2zm0 0" fill="#d9efec"/><path d="M281.8 145.2V386c0 4.7-3.1 8.7-7.6 10l-27.6 7.4v21.9c0 5.7-4.6 10.3-10.3 10.3h-20v65.9c0 5.8-4.6 10.5-10.4 10.5h-6c-5.8 0-10.5-4.7-10.5-10.5v-65.9h-67.6v65.9c0 5.8-4.7 10.5-10.5 10.5h-6c-5.8 0-10.5-4.7-10.5-10.5v-65.9h-20c-5.6 0-10.2-4.6-10.2-10.3v-22L37 396a10.3 10.3 0 0 1-7.6-9.9V145.2zm0 0" fill="#ffe256"/><path d="M281.8 145.2V386c0 4.7-3.1 8.7-7.6 10l-27.6 7.4v21.9c0 5.7-4.6 10.3-10.3 10.3h-20v65.9c0 5.8-4.6 10.5-10.4 10.5h-6c-5.8 0-10.5-4.7-10.5-10.5v-65.9h-14.8c82.1-70.1 66.7-237.9 59.6-290.4zm0 0" fill="#c6b041"/><path d="M29.4 194.3h252.4v146.1H29.4zm0 0" fill="#a0ecff"/><path d="M281.8 194.3v146.1h-53.6c12.8-49.7 13.3-104.8 10.7-146.1zm0 0" fill="#60daff"/><path d="M58.5 250.7h3.2v3.2a7.7 7.7 0 1 0 15.5 0v-3.2h3.1a7.7 7.7 0 0 0 0-15.4h-3.1V232a7.7 7.7 0 0 0-15.5 0v3.2h-3.2a7.7 7.7 0 1 0 0 15.4zm0 0" fill="#f72b2b"/><g fill="#d9efec"><path d="M107.4 239.8H125a7.7 7.7 0 1 0 0-15.4h-17.7a7.7 7.7 0 1 0 0 15.4zm0 0M107.4 260.7H151a7.7 7.7 0 1 0 0-15.5h-43.6a7.7 7.7 0 1 0 0 15.5zm0 0M154.8 273.3H58.5a7.7 7.7 0 1 0 0 15.4h96.3a7.7 7.7 0 1 0 0-15.4zm0 0M154.8 310.3H58.5a7.7 7.7 0 1 1 0-15.5h96.3a7.7 7.7 0 1 1 0 15.5zm0 0"/></g><path d="M194.6 302.6h-5.2c-5.7 0-10.3-4.7-10.3-10.3v-49.9c0-5.7 4.6-10.3 10.3-10.3h5.2c5.7 0 10.3 4.6 10.3 10.3v49.9c0 5.6-4.6 10.3-10.3 10.3zm0 0M242.4 302.6H237c-5.7 0-10.3-4.7-10.3-10.3v-49.9c0-5.7 4.6-10.3 10.3-10.3h5.3c5.7 0 10.3 4.6 10.3 10.3v49.9c0 5.6-4.6 10.3-10.3 10.3zm0 0" fill="#38aaff"/></svg>