<svg xmlns="http://www.w3.org/2000/svg" viewBox="0 0 512 512"><circle cx="256" cy="256" r="256" fill="#91c6e0"/><path d="M455.6 74.5v341.8A256.4 256.4 0 0 1 256 512a254.9 254.9 0 0 1-199.6-95.7V74.5h399.2z" fill="#fff"/><path fill="#e6e5e5" d="M56.4 74.5h399.2v50.2H56.4z"/><path d="M477 68.3V89a19 19 0 0 1-19 18.9H54a19 19 0 0 1-19-19V68.4a19 19 0 0 1 19-19h404a19 19 0 0 1 19 19z" fill="#263e82"/><g fill="#384e99"><path d="M477 68.3v7.1a19 19 0 0 1-19 19H54a19 19 0 0 1-19-19v-7a19 19 0 0 1 19-19h404a19 19 0 0 1 19 19zM81.7 278.3V173.7c0-7.5 6-13.5 13.5-13.5h70.3c7.5 0 13.5 6 13.5 13.5v104.6c0 7.5-6 13.5-13.5 13.5H95.2c-7.5 0-13.5-6-13.5-13.5z"/></g><path fill="#c5deea" d="M96.5 175h67.7v102H96.5z"/><g fill="#384e99"><path d="M88.2 199.1h84.4v15.8H88.2zM207.3 278.3V173.7c0-7.5 6-13.5 13.5-13.5h70.4c7.4 0 13.5 6 13.5 13.5v104.6c0 7.5-6 13.5-13.5 13.5h-70.4c-7.4 0-13.5-6-13.5-13.5z"/></g><path fill="#c5deea" d="M222.2 175h67.7v102h-67.7z"/><g fill="#384e99"><path d="M213.8 199.1h84.4v15.8h-84.4zM333 278.3V173.7c0-7.5 6-13.5 13.5-13.5h70.3c7.5 0 13.5 6 13.5 13.5v104.6c0 7.5-6 13.5-13.5 13.5h-70.3c-7.5 0-13.5-6-13.5-13.5z"/></g><path fill="#c5deea" d="M347.8 175h67.7v102h-67.7z"/><g fill="#384e99"><path d="M339.5 199.1h84.4v15.8h-84.4zM179 352.3V457c0 7.4-6 13.5-13.5 13.5h-49.3c-12.3-8-23.8-17-34.5-27v-91.2c0-7.4 6-13.5 13.5-13.5h70.3c7.5 0 13.5 6 13.5 13.5z"/></g><path fill="#c5deea" d="M96.5 353.7h67.7v102H96.5z"/><g fill="#384e99"><path d="M88.2 377.8h84.4v15.8H88.2zM207.3 457V352.3c0-7.4 6-13.5 13.5-13.5h70.4c7.4 0 13.5 6 13.5 13.5V457c0 7.4-6 13.5-13.5 13.5h-70.4c-7.4 0-13.5-6-13.5-13.5z"/></g><path fill="#c5deea" d="M222.2 353.7h67.7v102h-67.7z"/><g fill="#384e99"><path d="M213.8 377.8h84.4v15.8h-84.4zM430.3 352.3v91.2c-10.7 10-22.2 19-34.5 27h-49.3c-7.5 0-13.5-6-13.5-13.5V352.3c0-7.4 6-13.5 13.5-13.5h70.3c7.5 0 13.5 6 13.5 13.5z"/></g><path fill="#c5deea" d="M347.8 353.7h67.7v102h-67.7z"/><path fill="#384e99" d="M339.5 377.8h84.4v15.8h-84.4z"/><path d="M206 140h100a17 17 0 0 0 17-16.9V23a17 17 0 0 0-17-17H206a17 17 0 0 0-17 17V123a17 17 0 0 0 17 17z" fill="#c5deea"/><path d="M216.7 89.3v1.6c1 51 77.7 51 78.6 0v-1.6A86 86 0 0 0 256 17a86 86 0 0 0-39.3 72.3z" fill="#ff5b47"/><path d="M283.7 72.6h-13.1a4 4 0 0 1-4-4V55.3a4 4 0 0 0-4-4h-13.2a4 4 0 0 0-4 4v13.1a4 4 0 0 1-4 4h-13.1a4 4 0 0 0-4 4v13.2a4 4 0 0 0 4 4h13.1a4 4 0 0 1 4 4v13.1a4 4 0 0 0 4 4h13.2a4 4 0 0 0 4-4v-13a4 4 0 0 1 4-4h13.1a4 4 0 0 0 4-4.1V76.6a4 4 0 0 0-4-4z" fill="#fff"/></svg>