<svg xmlns="http://www.w3.org/2000/svg" viewBox="0 0 512 512"><path d="M512 256a254.8 254.8 0 0 1-39.5 136.7 255.8 255.8 0 0 1-433 0A254.8 254.8 0 0 1 0 256 255.1 255.1 0 0 1 98.5 54.2C141.9 20.2 196.5 0 256 0c59.4 0 114.1 20.2 157.6 54.2A254.8 254.8 0 0 1 512 256z" fill="#384e99"/><path d="M478 91v292.4c-1.7 3.2-3.6 6.3-5.5 9.3h-21a72 72 0 1 0-144.2 0H186.6a72 72 0 1 0-144.2 0h-2.9c-4.6-7.3-8.9-14.9-12.8-22.7V91a36.9 36.9 0 0 1 36.9-36.8h377.6a36.9 36.9 0 0 1 36.9 36.9z" fill="#e7f5fc"/><path d="M98 54.2C78.2 54.2 62 70.1 61.3 90V344a71.8 71.8 0 0 0-18.8 48.6h-2.8c-4.7-7.3-9-14.9-12.9-22.7V91a36.9 36.9 0 0 1 36.9-36.8h34.5z" fill="#c5deea"/><path d="M381 272H478V109h-51a46.3 46.3 0 0 0-46.2 46.3v116.8z" fill="#00a6f9"/><path d="M417 22.4v31.8h-72.1V22.4c0-12.4 10-22.4 22.4-22.4h27.3C406.9 0 417 10 417 22.4z" fill="#e53e2d"/><path d="M417 22.4v31.8h-48.6V22.4c0-12.4 10-22.4 22.4-22.4h3.8C406.9 0 417 10 417 22.4z" fill="#ff5b47"/><g fill="#414142"><circle cx="114.5" cy="392.7" r="57.7"/><circle cx="379.4" cy="392.7" r="59.1"/></g><g fill="#e7f5fc"><circle cx="379.4" cy="392.7" r="30.2"/><circle cx="114.5" cy="392.7" r="29.5"/></g><g fill="#ff5b47"><path d="M458.5 353.6h19.6V305h-19.6c-5.6 0-10.2 4.6-10.2 10.2v28.1c0 5.7 4.6 10.3 10.2 10.3zM122.8 233v2.9c1.8 92.7 141.3 92.7 143 0v-3c0-55-28.5-103.5-71.5-131.4a156.4 156.4 0 0 0-71.5 131.4z"/></g><path d="M244.7 202.6h-23.8c-4 0-7.4-3.3-7.4-7.3v-23.9c0-4-3.2-7.3-7.3-7.3h-23.8c-4 0-7.3 3.3-7.3 7.3v23.9c0 4-3.3 7.3-7.3 7.3h-23.9c-4 0-7.3 3.3-7.3 7.3v23.8c0 4 3.3 7.3 7.3 7.3h23.9c4 0 7.3 3.3 7.3 7.4v23.8c0 4 3.3 7.3 7.3 7.3h23.8c4 0 7.3-3.3 7.3-7.3v-23.8c0-4 3.3-7.4 7.4-7.4h23.8c4 0 7.3-3.2 7.3-7.3V210c0-4-3.3-7.3-7.3-7.3z" fill="#fff"/><path d="M460.2 250.1H448a8 8 0 0 1-8-8v-98.4a8 8 0 0 1 8-8h12.3a8 8 0 0 1 8 8v98.5a8 8 0 0 1-8 8z" fill="#e7f5fc"/></svg>