<svg version="1" xmlns="http://www.w3.org/2000/svg" viewBox="0 0 512 512"><circle cx="256" cy="256" r="256" fill="#1195b2"/><path d="M450 107v316a255 255 0 0 1-388 0V107h388z" fill="#e6edff"/><path fill="#c0cdea" d="M62 107h389v49H62z"/><path d="M448 129H64c-10 0-17-8-17-17V48c0-9 7-16 17-16h384c10 0 17 7 17 16v64c0 9-7 17-17 17z" fill="#ff5b47"/><path d="M355 177H157c-7 0-12-6-12-13s5-12 12-12h198c7 0 12 5 12 12s-5 13-12 13z" fill="#384e99"/><g fill="#c5deea"><circle cx="193" cy="235" r="24"/><circle cx="256" cy="235" r="24"/></g><circle cx="383" cy="235" r="24" fill="#384e99"/><g fill="#c5deea"><circle cx="193" cy="303" r="24"/><circle cx="256" cy="303" r="24"/><circle cx="319" cy="303" r="24"/></g><circle cx="383" cy="303" r="24" fill="#384e99"/><g fill="#c5deea"><circle cx="129" cy="371" r="24"/><circle cx="193" cy="371" r="24"/><circle cx="256" cy="371" r="24"/><circle cx="319" cy="371" r="24"/></g><circle cx="383" cy="371" r="24" fill="#384e99"/><g fill="#c5deea"><circle cx="129" cy="439" r="24"/><circle cx="193" cy="439" r="24"/></g><g fill="#263e82"><circle cx="169" cy="80" r="24"/><circle cx="343" cy="80" r="24"/></g><g fill="#ff5b47"><path d="M107 305v1c1 27 42 27 42 0v-1c0-16-8-30-21-38-12 8-21 22-21 38zM298 237v1c0 28 41 28 42 0v-1c0-16-9-30-21-38-13 8-21 22-21 38zM234 441v1c1 27 42 27 42 0v-1c0-16-8-30-21-38-12 8-21 22-21 38z"/></g></svg>