<svg version="1" xmlns="http://www.w3.org/2000/svg" viewBox="0 0 512 512"><path d="M301 1H119l-2 2v114l2 2h43v39c0 5 3 6 4 6s3 0 9-6l27-31V39h99l2-2V3l-2-2z" fill="#75bf4d"/><path d="M381 26H191l-2 2v123l2 1h98l33 38c7 7 10 7 11 7 2 0 5-2 5-7v-38h43l2-1V28l-2-2z" fill="#6598cb"/><g fill="#56a846"><path d="M132 1h-13l-2 2v114l2 2h13l2-2V3l-2-2zM162 119v39c0 5 3 6 4 6s3 0 9-6l3-4 1-1v-34h-17z"/></g><path d="M183 378l1-1c12-19 19-42 19-65 0-60-41-109-92-109s-92 49-92 109a122 122 0 0 0 21 68c4 6 10 5 12 4l20-6 13-2-10-9c-7-7-12-17-14-27l-1-6h-5c-9-1-15-8-15-17s6-16 15-17h6v-5c6-2 32-10 50-28 4 5 20 22 50 28v5h6c9 1 15 8 15 17s-7 16-15 17h-6v6c-2 10-7 20-15 27l-9 9 13 2 20 6c3 1 9 2 13-6z" fill="#694b4b"/><path d="M136 399v-24l-9 2-11 2h-10l-12-2-8-2v24l-25 6 6 19 2 2a84 84 0 0 0 42 11c15 0 29-4 42-12l2-1 5-19-24-6z" fill="#fbcb99"/><path d="M102 435c-13-2-22-7-25-9l-5-20 20-5v-23l-6-3v24l-25 6 6 19 2 2a84 84 0 0 0 42 11h4l-13-2z" fill="#edba89"/><path d="M144 428a79 79 0 0 1-66 0l-10-4 25 87h36l24-87-9 4z" fill="#f5f5f7"/><path fill="#d2d2d7" d="M68 424l25 87h8l-23-83z"/><g fill="#324a5e"><path d="M195 419l-10-5-1-1-29-9-30 107h85c9 0 11-8 11-11v-32c0-26-14-42-26-49zM66 404l-29 9-1 1-10 5c-12 7-26 23-26 49v32c0 3 2 11 11 11h85L66 404z"/></g><g fill="#283d4c"><path d="M11 500v-32c0-26 14-42 26-49l9-5 2-1 19-6-1-3-29 9-2 1-9 5c-12 7-26 23-26 49v32c0 3 2 10 11 11v-11zM185 511v-44a5 5 0 0 0-10 0v44h10z"/><path d="M45 511v-44a5 5 0 0 0-10 0v44h10z"/></g><path d="M171 296a9 9 0 0 0-12 9v25a9 9 0 0 0 12 8l4-2 3-2 2-2a22 22 0 0 0-9-36z" fill="#fbcb99"/><path d="M59 298c-2-2-5-3-8-2-9 3-15 11-15 21s6 18 15 21a9 9 0 0 0 12-8v-25c0-3-2-6-4-7z" fill="#edba89"/><path d="M164 297v-1c0-1 0-3-2-4l-3-1c-23-5-36-16-43-23-5-5-11 0-11 0-16 14-35 21-43 23h-1c-3 1-3 3-4 4v39c0 26 22 48 49 48h10c27 0 48-22 48-48v-38 1z" fill="#fbcb99"/><path d="M114 267c-5-3-9 1-9 1-16 14-35 21-43 23h-1c-3 1-3 3-4 4v39c0 26 22 48 49 48h8c-27 0-49-22-49-48v-36c0-4 4-6 5-7h2c9-3 27-11 42-24z" fill="#edba89"/><path d="M38 378l2 2c4 6 10 5 12 4l-1-1c-14-20-22-45-22-71 0-58 38-106 87-109h-5c-51 0-92 49-92 109a122 122 0 0 0 19 66z" fill="#563b3b"/><path fill="#ef4c35" d="M414 454l7-18-20-15-20 15 7 18z"/><path fill="#dd3e2b" d="M388 454v1l-9 56h44l-9-56v-1z"/><path fill="#d2d2d7" d="M385 511l9-57-9-21-28-27 5 40 18 65z"/><path fill="#e4e4ea" d="M422 511l18-65 6-41-30 28-8 21 10 57z"/><path d="M423 444c5 4 9 1 10-1l19-39-24-15-6 10-21 22-20-20-4-14-27 17 18 38c1 1 4 7 11 2l22-16 20 15 2 1z" fill="#f5f5f7"/><path d="M404 198h-6c-38 0-69 31-69 69v33s15-1 17-9l2-3c9 0 51 0 75-29 3 8 13 24 31 29l2 3c2 8 18 9 18 9v-33c0-38-32-69-70-69zm53 88v-1l-1 1h1zm-1 0l1-1-1 1zm-2 1l2-1v1l-2 1v-1zm2 0l-1 1 1-2v1z" fill="#694b4b"/><path d="M341 285v-18a70 70 0 0 1 63-69h-6c-38 0-69 31-69 69v33l12-3v-12z" fill="#563b3b"/><path d="M465 290a9 9 0 0 0-11 8v25a9 9 0 0 0 11 9l5-2 3-3 2-2a22 22 0 0 0-10-35z" fill="#fbcb99"/><path d="M345 291c-2-1-5-2-8-1-9 3-15 11-15 21s6 18 15 21a9 9 0 0 0 8-1c2-2 4-5 4-8v-25l-4-7z" fill="#edba89"/><path d="M425 367c-1-2-4-2-6-2h-1-1l-10 1h-11l-11-1a9 9 0 0 0-10 8v26c-1 3 0 5 2 7l18 17c2 2 4 2 6 2l6-2 18-19 3-6v-25l-3-6z" fill="#fbcb99"/><path d="M403 420l-18-17c-2-2-3-4-3-7v-25c0-3 1-5 3-6a9 9 0 0 0-10 8v26c-1 3 0 5 2 7l18 17c2 2 4 2 6 2l6-2-4-3z" fill="#edba89"/><path d="M453 283l-3-1a45 45 0 0 1-24-22c-2-4-5-2-5-2a125 125 0 0 1-69 26c-4 0-8 4-8 9v35c0 29 23 52 52 52h11c28 0 51-23 51-52v-37c0-4-2-7-5-8z" fill="#fbcb99"/><path d="M355 328v-35c0-5 3-9 8-9l14-2a129 129 0 0 0 50-20 29 29 0 0 1-1-2c-2-4-5-2-5-2a125 125 0 0 1-69 26c-4 0-8 4-8 9v35c0 29 23 52 52 52h10c-28 0-51-23-51-52z" fill="#edba89"/><g fill="#324a5e"><path d="M301 511h85l-30-110-32 13c-13 5-35 21-35 54v31c0 4 2 12 12 12zM512 500v-32c0-33-23-50-35-54l-30-12-31 109h85c9 0 11-8 11-11z"/></g><g fill="#283d4c"><path d="M356 401l-32 13c-13 5-35 21-35 54v31c0 4 2 12 12 12h1v-43c0-33 22-49 35-54l20-8-1-5zM476 511v-44a5 5 0 0 0-10 0v44h10zM336 511v-44a5 5 0 1 0-10 0v44h10z"/></g><g fill="#4982aa"><path d="M204 26h-13l-2 2v123l2 1h13l1-1V28l-1-2zM311 152h-22l31 35 2 3c6 6 9 7 11 7 1 0 5-1 5-7v-7l-1-1-26-30z"/></g></svg>