<svg version="1" xmlns="http://www.w3.org/2000/svg" viewBox="0 0 512 512"><path d="M406 512H106c-5 0-9-4-9-9v-9c0-5 4-8 9-8h300c5 0 9 3 9 8v9c0 5-4 9-9 9z" fill="#afb9d2"/><path fill="#eff2fa" d="M106 18h300v468H106z"/><path d="M406 18H106c-5 0-9-4-9-9s4-9 9-9h300c5 0 9 4 9 9s-4 9-9 9z" fill="#afb9d2"/><path d="M237 124a97 97 0 1 0 107 106c0-5-4-9-9-9h-79c-5 0-9-4-9-9v-79c0-5-4-9-10-9z" fill="#9be6d2"/><path d="M265 115v79c0 5 4 9 9 9h79c5 0 9-4 8-10-4-46-41-82-86-87-6 0-10 4-10 9z" fill="#78d2be"/><path d="M238 71h-26c-5 0-9-4-9-9s4-9 9-9h26c5 0 9 4 9 9s-4 9-9 9z" fill="#c7cfe2"/><path d="M362 71h-88c-5 0-9-4-9-9s4-9 9-9h88c5 0 9 4 9 9s-4 9-9 9z" fill="#d7deed"/><path d="M168 371h-18c-5 0-9-4-9-9s4-9 9-9h18c5 0 9 4 9 9s-4 9-9 9z" fill="#c7cfe2"/><path d="M362 371H203c-5 0-9-4-9-9s4-9 9-9h159c5 0 9 4 9 9s-4 9-9 9z" fill="#d7deed"/><path d="M168 406h-18c-5 0-9-4-9-9s4-9 9-9h18c5 0 9 4 9 9s-4 9-9 9z" fill="#c7cfe2"/><path d="M362 406H203c-5 0-9-4-9-9s4-9 9-9h159c5 0 9 4 9 9s-4 9-9 9z" fill="#d7deed"/><path d="M168 441h-18c-5 0-9-4-9-8 0-5 4-9 9-9h18c5 0 9 4 9 9 0 4-4 8-9 8z" fill="#c7cfe2"/><path d="M362 441H203c-5 0-9-4-9-8 0-5 4-9 9-9h159c5 0 9 4 9 9 0 4-4 8-9 8z" fill="#d7deed"/><circle cx="163" cy="62" r="22" fill="#c7cfe2"/><path fill="#d7deed" d="M106 468h300v18H106z"/></svg>