<svg version="1" xmlns="http://www.w3.org/2000/svg" viewBox="0 0 512 512"><g fill="#e4f1fb"><path d="M378 0H2L0 2v125l2 2h376l2-2V2l-2-2zM396 377l-5-4c-11-5-19-15-22-26l-2-9-2-1h-9a17 17 0 0 1-16-19l2-12a2 2 0 0 0-2-2H2l-2 2v124l2 2h321l4 1h1l4-3 7-3 57-23 1-1v-25l-1-1zM378 152H2l-2 2v125l2 1h335l2-1 1-10c2-21 13-30 33-41l6-3 1-1v-70l-2-2z"/></g><g fill="#fff"><path d="M226 58h-92a8 8 0 1 1 0-16h92a8 8 0 1 1 0 16zM318 95H134a8 8 0 1 1 0-16h184a8 8 0 1 1 0 16zM226 210h-92a8 8 0 1 1 0-17h92a8 8 0 1 1 0 17zM316 247H134a8 8 0 1 1 0-17h182a8 8 0 1 1 0 17zM226 362h-92a8 8 0 1 1 0-17h92a8 8 0 1 1 0 17zM315 399H134a8 8 0 1 1 0-17h181a8 8 0 1 1 0 17z"/></g><path d="M94 104H36c-5 0-8-3-8-8V41c0-5 3-9 8-9h42a8 8 0 1 1 0 17H44v39h42v-7a8 8 0 1 1 16 0v15c0 5-3 8-8 8z" fill="#324a5e"/><path d="M71 85c-3 0-5-1-6-3L50 66a8 8 0 1 1 12-11l9 9 28-29a8 8 0 1 1 12 11L77 82l-6 3z" fill="#75bf4d"/><path d="M94 256H36c-5 0-8-3-8-8v-55c0-5 3-9 8-9h42a8 8 0 1 1 0 17H44v39h42v-7a8 8 0 1 1 16 0v15c0 5-3 8-8 8z" fill="#324a5e"/><path d="M71 237c-3 0-5-1-6-3l-15-16a8 8 0 1 1 12-11l9 9 28-29a8 8 0 1 1 12 11l-34 36-6 3z" fill="#75bf4d"/><path d="M94 408H36c-5 0-8-4-8-8v-56c0-4 3-8 8-8h42a8 8 0 1 1 0 17H44v38h42v-6a8 8 0 1 1 16 0v15c0 4-3 8-8 8z" fill="#324a5e"/><path d="M71 389c-3 0-5-1-6-3l-15-16a8 8 0 1 1 12-11l9 9 28-29a8 8 0 1 1 12 11l-34 36-6 3z" fill="#75bf4d"/><path d="M512 469v-3-1-2-1l-1-2a55 55 0 0 0-17-34l-1-1a42 42 0 0 0-2-1c-5-4-9-7-13-8l-51-20-12 13-13 12-13-12-12-13-50 20c-4 1-9 4-14 8a41 41 0 0 0-4 3c-7 7-14 18-16 33v3l-1 2v36c1 4 3 11 12 11h196c10 0 12-7 12-11v-32z" fill="#6598cb"/><path d="M377 396l-50 20c-13 4-35 21-35 53v32c1 4 3 11 12 11h3v-43c0-32 22-49 34-53l40-16-4-4z" fill="#4982aa"/><path d="M405 214h-6c-37 0-67 30-67 66v32s16-2 18-9l1-3c9 0 49 0 72-28 3 8 12 23 30 28l2 3h-1c2 7 18 9 18 9v-32c0-36-30-66-67-66zm50 84h1-1zm0 0zm-2 2l2-2-1 1-1 1zm1-1v1l1-1h-1z" fill="#694b4b"/><path d="M344 298v-18a67 67 0 0 1 61-66h-6c-37 0-67 30-67 66v32s7-1 12-4v-10z" fill="#563b3b"/><path d="M464 302a8 8 0 0 0-11 8v24a8 8 0 0 0 11 8l4-2 3-2 2-2a21 21 0 0 0-9-34z" fill="#fbcb99"/><path d="M348 303c-2-1-5-2-7-1-9 3-15 11-15 20s6 17 15 20a8 8 0 0 0 11-8v-24c0-3-2-5-4-7z" fill="#edba89"/><path d="M425 376c-2-2-4-3-6-2h-2l-10 1h-10l-10-1a8 8 0 0 0-10 8v24c-1 3 0 5 2 7l17 16 6 3 6-3 17-18c2-1 3-4 3-6v-23c0-2-1-5-3-6z" fill="#fbcb99"/><path d="M404 427l-17-17c-2-1-3-4-3-6v-25l2-5a8 8 0 0 0-9 8v24c-1 3 0 5 2 7l17 16 6 3 6-3-4-2z" fill="#edba89"/><path d="M451 295l-3-1a43 43 0 0 1-22-21c-2-3-5-1-5-1a120 120 0 0 1-53 22l-13 2c-4 0-8 4-8 8v35c0 27 23 49 50 49h10c28 0 50-22 50-49v-36c0-3-2-7-6-8z" fill="#fbcb99"/><path d="M358 339v-35c0-4 3-8 7-8l14-2a123 123 0 0 0 48-19 27 27 0 0 1-1-2c-2-3-5-1-5-1a120 120 0 0 1-53 22l-13 2c-4 0-8 4-8 8v35c0 27 23 49 50 49h10c-27 0-49-22-49-49z" fill="#edba89"/></svg>