<svg version="1" xmlns="http://www.w3.org/2000/svg" viewBox="0 0 512 512"><circle cx="256" cy="256" r="256" fill="#384e99"/><g fill="#fff"><path d="M289 228v148c0 12-10 22-22 22H43c-10-15-19-31-25-48V228c0-12 10-22 22-22h227c12 0 22 10 22 22z"/><path d="M178 383l-89 67-23-22v-43l112-2z"/></g><path d="M472 13H245c-12 0-22 10-22 22v184c0 12 10 22 22 22h108l73 55c8 6 20 0 20-10v-45h26c12 0 22-10 22-22V35c0-12-10-22-22-22z" fill="#c5deea"/><path d="M305 149v2c1 71 106 71 108 0a118 118 0 0 0-54-101c-33 21-54 58-54 99z" fill="#ff5b47"/><g fill="#414142"><path d="M65 244h176v22H65zM65 291h176v22H65zM65 338h176v22H65z"/></g></svg>