<svg xmlns="http://www.w3.org/2000/svg" viewBox="0 0 512 512"><path d="M246 298c-4-7-14-9-21-5a15 15 0 0 0-2-10v-1c-5-7-14-9-21-5l-48 28c3-8 7-19 4-28-1-5-5-8-10-10l-1-1h-2c-5-1-15 1-24 21-5 11-11 15-16 20-10 9-17 16-21 42l-22 12 44 75 29-17c20 9 62-16 63-17l31-18c8-4 10-13 6-20v-1a15 15 0 0 0-8-6l16-10c7-4 9-13 5-20v-1a15 15 0 0 0-8-6v-1c8-4 10-13 6-20v-1z" fill="#fbcb99"/><path d="M202 277l-48 28s-5 2-3 5c2 4 5 2 5 2l56-33a16 16 0 0 1 5-2c-5-3-10-3-15 0zm-55-11h-2c-5-1-15 1-24 21-5 11-11 15-16 20-10 9-17 16-21 42l-22 12 44 75h1l-40-70 23-13c3-26 10-34 21-43 6-5 11-10 17-21 7-17 16-21 22-22h-2l-1-1zm78 27l-48 28s-5 2-3 5 5 2 5 2l56-33a16 16 0 0 1 5-2c-4-3-10-3-15 0zm15 27a15 15 0 0 0-2 1l-49 28s-4 2-2 5c2 4 5 2 5 2l54-32a15 15 0 0 0-6-4zm-13 37l-32 18s-5 2-3 6c3 3 5 1 5 1l36-21a15 15 0 0 0-6-4z" fill="#e9b585"/><path d="M1 391l1 1 40 70 7 11v2c2 2 5 5 10 2l15-9 20-11 15-9c5-3 4-7 3-9l-1-1-7-12-40-70-1-1c-1-2-4-5-9-3l-15 9-20 12-16 8c-4 4-3 8-2 10z" fill="#6598cb"/><path d="M13 399l16-9 19-12 16-9c5-2 8 1 9 3l-1-2-8-14-1-1c-1-2-4-5-9-3l-16 9-19 12-16 8c-4 4-3 8-2 10l1 1 8 14 1 2c-1-2-2-6 2-9zm63-22zm-62 36z" fill="#4982aa"/><path d="M261 310c-4 8-2 17 6 21a15 15 0 0 0-8 7c-4 8-2 17 5 21l49 28c-9 1-20 3-27 10-3 4-4 8-4 14v1l1 2c2 4 9 13 30 10 12-1 19 2 26 4 13 4 23 7 46-3l22 13 44-75-30-17c-2-22-44-46-46-47l-31-18c-7-4-17-1-21 6a15 15 0 0 0-2 11l-16-9c-7-5-16-2-21 5v1a15 15 0 0 0-2 9c-7-4-17-1-21 6z" fill="#fbcb99"/><path d="M264 359l49 28s4 3 6-1-2-5-2-5l-56-31a16 16 0 0 1-4-4c0 5 3 10 7 13zm18 53l1 2c2 4 9 13 30 10 12-1 19 2 26 4 13 4 23 7 46-3l22 13 44-75-1-1-40 69-23-13c-25 10-35 8-48 3-7-2-15-5-27-4-19 2-27-4-30-8v3zm-15-81l48 28s4 3 6-1c2-3-1-5-1-5l-57-31a16 16 0 0 1-4-4c0 5 3 10 8 13zm15-27l3 2 48 28s4 3 6-1c2-3-1-5-1-5l-55-31a15 15 0 0 0-1 7zm39-7l32 19s4 3 6-1c2-3-1-5-1-5l-36-20a15 15 0 0 0-1 7z" fill="#e9b585"/><path d="M463 476v-1l40-70 7-12 1-1c1-2 2-6-2-10l-16-8-19-12-16-9c-5-2-8 1-9 3l-1 1-7 12-40 70-1 1c-1 2-2 6 3 9l15 9 20 12 15 8c5 3 8 0 10-2z" fill="#6598cb"/><path d="M463 461l-15-9-20-11-15-9c-5-3-4-7-3-9l-1 2-8 14-1 1c-1 2-2 6 3 9l15 9 20 12 15 8c5 3 8 0 10-2v-1l8-14 2-3c-2 2-5 6-10 3zm-50-43zm62 36v-1 1z" fill="#4982aa"/><path d="M263 289c9 0 15-7 15-15a15 15 0 0 0 10 3h1c8 0 15-7 15-15v-56c5 7 12 16 21 18 5 1 10 0 14-3l2-1 1-2c2-3 6-13-6-31-7-10-9-17-10-24-2-13-6-23-26-39V99h-86v34c-18 12-17 61-17 63v36c0 8 7 15 15 15 4 0 8-1 10-3v18c0 8 7 15 15 15h1a15 15 0 0 0 9-3c0 8 7 15 16 15z" fill="#fbcb99"/><path d="M224 133V99h-10v34c-18 12-17 61-17 63v36c0 8 7 15 15 15h5c-6-2-10-8-10-15v-36c0-2-1-51 17-63zm8 129v-59a5 5 0 0 0-10 0v59c0 8 7 15 15 15h1a15 15 0 0 0 5-1c-6-2-11-7-11-14zm55 9v-49a5 5 0 0 0-9 0v52a11 11 0 0 0 2 1c4 2 9 2 9 2l4-1a15 15 0 0 1-4-2 5 5 0 0 1-2-3zm-30 3v-47a5 5 0 0 0-9 0v50c1 7 7 12 15 12h5c-6-2-11-8-11-15zm62-61a163 163 0 0 1-5-7l-10-13v13l10 12c3 3 7 5 11 6h9c-6-2-11-6-15-11z" fill="#e9b585"/><path d="M305 33h-97c-3 0-7 1-7 6v59c0 5 4 6 7 6h97c2 0 6-1 7-6V39c-1-5-5-6-7-6z" fill="#6598cb"/><path d="M221 98V39c0-5 4-6 7-6h-20c-3 0-7 1-7 6v59c0 5 4 6 7 6h20c-3 0-7-1-7-6zm13-65h-1 1zm-1 71h0z" fill="#4982aa"/></svg>