<svg xmlns="http://www.w3.org/2000/svg" viewBox="0 0 512 512"><path d="M494 459H18c-10 0-18-8-18-18V35c0-9 8-17 18-17h476c10 0 18 8 18 17v406c0 10-8 18-18 18z" fill="#eff2fa"/><path d="M378 459a141 141 0 1 0-244 0h244z" fill="#e4eaf6"/><path d="M512 106H0V35c0-9 8-17 18-17h476c10 0 18 8 18 17v71z" fill="#ff6464"/><path fill="#e4eaf6" d="M0 106h512v18H0z"/><circle cx="75" cy="57" r="26" fill="#d2555a"/><path d="M75 71c-7 0-13-6-13-14V13a13 13 0 0 1 26 0v44c0 8-6 14-13 14z" fill="#c7cfe2"/><path d="M75 44c-7 0-13-6-13-13v26a13 13 0 0 0 26 0V31c0 7-6 13-13 13z" fill="#afb9d2"/><circle cx="437" cy="57" r="26" fill="#d2555a"/><path d="M437 71c-7 0-13-6-13-14V13a13 13 0 1 1 26 0v44c0 8-6 14-13 14z" fill="#c7cfe2"/><path d="M437 44c-7 0-13-6-13-13v26a13 13 0 0 0 26 0V31c0 7-6 13-13 13z" fill="#afb9d2"/><path d="M97 230H62a9 9 0 0 1-9-9v-27a9 9 0 0 1 9-9h35a9 9 0 0 1 9 9v27a9 9 0 0 1-9 9zm71 0h-36a9 9 0 0 1-8-9v-27a9 9 0 0 1 8-9h36a9 9 0 0 1 9 9v27a9 9 0 0 1-9 9zm70 0h-35a9 9 0 0 1-9-9v-27a9 9 0 0 1 9-9h35a9 9 0 0 1 9 9v27a9 9 0 0 1-9 9zm71 0h-35a9 9 0 0 1-9-9v-27a9 9 0 0 1 9-9h35a9 9 0 0 1 9 9v27a9 9 0 0 1-9 9z" fill="#e4eaf6"/><path d="M380 230h-36a9 9 0 0 1-9-9v-27a9 9 0 0 1 9-9h36a9 9 0 0 1 8 9v27a9 9 0 0 1-8 9zm70 0h-35a9 9 0 0 1-9-9v-27a9 9 0 0 1 9-9h35a9 9 0 0 1 9 9v27a9 9 0 0 1-9 9z" fill="#d7deed"/><path d="M97 168H62a9 9 0 0 1 0-18h35a9 9 0 0 1 0 18zm71 0h-36a9 9 0 0 1 0-18h36a9 9 0 0 1 0 18zm70 0h-35a9 9 0 0 1 0-18h35a9 9 0 0 1 0 18zm71 0h-35a9 9 0 0 1 0-18h35a9 9 0 0 1 0 18z" fill="#c7cfe2"/><path d="M380 168h-36a9 9 0 0 1 0-18h36a9 9 0 0 1 0 18zm70 0h-35a9 9 0 0 1 0-18h35a9 9 0 0 1 0 18z" fill="#ff6464"/><path d="M97 291H62a9 9 0 0 1-9-9v-26a9 9 0 0 1 9-9h35a9 9 0 0 1 9 9v26a9 9 0 0 1-9 9zm71 0h-36a9 9 0 0 1-8-9v-26a9 9 0 0 1 8-9h36a9 9 0 0 1 9 9v26a9 9 0 0 1-9 9zm70 0h-35a9 9 0 0 1-9-9v-26a9 9 0 0 1 9-9h35a9 9 0 0 1 9 9v26a9 9 0 0 1-9 9zm71 0h-35a9 9 0 0 1-9-9v-26a9 9 0 0 1 9-9h35a9 9 0 0 1 9 9v26a9 9 0 0 1-9 9z" fill="#e4eaf6"/><path d="M380 291h-36a9 9 0 0 1-9-9v-26a9 9 0 0 1 9-9h36a9 9 0 0 1 8 9v26a9 9 0 0 1-8 9zm70 0h-35a9 9 0 0 1-9-9v-26a9 9 0 0 1 9-9h35a9 9 0 0 1 9 9v26a9 9 0 0 1-9 9z" fill="#d7deed"/><path d="M97 353H62a9 9 0 0 1-9-9v-26a9 9 0 0 1 9-9h35a9 9 0 0 1 9 9v26a9 9 0 0 1-9 9zm71 0h-36a9 9 0 0 1-8-9v-26a9 9 0 0 1 8-9h36a9 9 0 0 1 9 9v26a9 9 0 0 1-9 9zm70 0h-35a9 9 0 0 1-9-9v-26a9 9 0 0 1 9-9h35a9 9 0 0 1 9 9v26a9 9 0 0 1-9 9zm71 0h-35a9 9 0 0 1-9-9v-26a9 9 0 0 1 9-9h35a9 9 0 0 1 9 9v26a9 9 0 0 1-9 9z" fill="#e4eaf6"/><path d="M380 353h-36a9 9 0 0 1-9-9v-26a9 9 0 0 1 9-9h36a9 9 0 0 1 8 9v26a9 9 0 0 1-8 9zm70 0h-35a9 9 0 0 1-9-9v-26a9 9 0 0 1 9-9h35a9 9 0 0 1 9 9v26a9 9 0 0 1-9 9z" fill="#d7deed"/><path d="M97 415H62a9 9 0 0 1-9-9v-26a9 9 0 0 1 9-9h35a9 9 0 0 1 9 9v26a9 9 0 0 1-9 9zm71 0h-36a9 9 0 0 1-8-9v-26a9 9 0 0 1 8-9h36a9 9 0 0 1 9 9v26a9 9 0 0 1-9 9zm70 0h-35a9 9 0 0 1-9-9v-26a9 9 0 0 1 9-9h35a9 9 0 0 1 9 9v26a9 9 0 0 1-9 9zm71 0h-35a9 9 0 0 1-9-9v-26a9 9 0 0 1 9-9h35a9 9 0 0 1 9 9v26a9 9 0 0 1-9 9z" fill="#e4eaf6"/><path d="M380 415h-36a9 9 0 0 1-9-9v-26a9 9 0 0 1 9-9h36a9 9 0 0 1 8 9v26a9 9 0 0 1-8 9zm70 0h-35a9 9 0 0 1-9-9v-26a9 9 0 0 1 9-9h35a9 9 0 0 1 9 9v26a9 9 0 0 1-9 9z" fill="#d7deed"/><circle cx="256" cy="388" r="124" fill="#afb9d2"/><circle cx="256" cy="388" r="106" fill="#fff"/><circle cx="256" cy="388" r="62" fill="#eff2fa"/><path d="M256 274a9 9 0 0 0-9 8v9a9 9 0 0 0 18 0v-9a9 9 0 0 0-9-8zm0 203a9 9 0 0 0-9 9v8a9 9 0 0 0 18 0v-8a9 9 0 0 0-9-9zm115-89a9 9 0 0 0-9-8h-9a9 9 0 0 0 0 17h9a9 9 0 0 0 9-9zm-203 0a9 9 0 0 0-9-8h-9a9 9 0 0 0 0 17h9a9 9 0 0 0 9-9z" fill="#707487"/><g fill="#5b5d6e"><path d="M256 424a9 9 0 0 1-9-9v-88a9 9 0 0 1 18 0v88a9 9 0 0 1-9 9z"/><path d="M221 388a9 9 0 0 1 9-8h88a9 9 0 0 1 0 17h-88a9 9 0 0 1-9-9z"/></g><circle cx="256" cy="388" r="18" fill="#c7cfe2"/></svg>