<svg xmlns="http://www.w3.org/2000/svg" viewBox="0 0 512 512"><path d="M476.9 35.2a120 120 0 0 1 0 169.7l-99 98.8a119.5 119.5 0 0 1-124 28.6 119.5 119.5 0 0 1-74.2-74.2l2-2.1 37.2-37.8L256 256a52.5 52.5 0 0 0 74.2 0l2.1-2.1 96.8-96.8A52.6 52.6 0 0 0 355 83L258 179.7l-39.2 16-39.2-16a119.6 119.6 0 0 1 28.6-45.7L307 35.2a120 120 0 0 1 169.8 0z" fill="#a3e1ff"/><path d="M258.1 179.7a119.5 119.5 0 0 1 74.2 74.2l-2 2.1a52.5 52.5 0 0 1-74.3 0 52.6 52.6 0 0 0-74.2 0l-2.1 2.1-96.8 96.8A52.5 52.5 0 0 0 157 429l96.8-96.8c25.4 8.8 53 8.8 78.4 0a119.5 119.5 0 0 1-28.6 45.7L205 476.9A120 120 0 0 1 35 307l99-98.8a119.5 119.5 0 0 1 124-28.6z" fill="#4aaee2"/></svg>