<svg version="1" xmlns="http://www.w3.org/2000/svg" viewBox="0 0 512 512"><path d="M305 144l6-12a8 8 0 0 0-7-12h-48c-4 0-8 4-8 8v32c0 4 4 8 8 8h48a8 8 0 0 0 7-12l-6-12z" fill="#ff4f19"/><path d="M256 192c-4 0-8-4-8-8v-64a8 8 0 1 1 16 0v64c0 4-4 8-8 8z" fill="#5c546a"/><path fill="#868491" d="M360 272h128v112H360zM24 272h128v112H24z"/><path d="M344 280h144a8 8 0 1 0 0-16H344a8 8 0 1 0 0 16zM168 280H24a8 8 0 1 1 0-16h144a8 8 0 1 1 0 16z" fill="#b4b6bc"/><path d="M384 368c4 0 8-4 8-8v-8a8 8 0 1 0-16 0v8c0 4 4 8 8 8zM408 368c4 0 8-4 8-8v-8a8 8 0 1 0-16 0v8c0 4 4 8 8 8zM432 368c4 0 8-4 8-8v-8a8 8 0 1 0-16 0v8c0 4 4 8 8 8zM456 368c4 0 8-4 8-8v-8a8 8 0 1 0-16 0v8c0 4 4 8 8 8zM384 336c4 0 8-4 8-8v-24a8 8 0 1 0-16 0v24c0 4 4 8 8 8zM408 336c4 0 8-4 8-8v-24a8 8 0 1 0-16 0v24c0 4 4 8 8 8zM432 336c4 0 8-4 8-8v-24a8 8 0 1 0-16 0v24c0 4 4 8 8 8zM456 336c4 0 8-4 8-8v-24a8 8 0 1 0-16 0v24c0 4 4 8 8 8z" fill="#5c546a"/><path fill="#b4b6bc" d="M152 244h208l-104-55z"/><path fill="#868491" d="M160 248h192v144H160z"/><path d="M256 400c-4 0-8-4-8-8V248a8 8 0 1 1 16 0v144c0 4-4 8-8 8zM224 400c-4 0-8-4-8-8V248a8 8 0 1 1 16 0v144c0 4-4 8-8 8zM192 400c-4 0-8-4-8-8V248a8 8 0 1 1 16 0v144c0 4-4 8-8 8zM320 400c-4 0-8-4-8-8V248a8 8 0 1 1 16 0v144c0 4-4 8-8 8z" fill="#b4b6bc"/><g><path d="M288 400c-4 0-8-4-8-8V248a8 8 0 1 1 16 0v144c0 4-4 8-8 8z" fill="#b4b6bc"/></g><g><path d="M352 400c-4 0-8-4-8-8V248a8 8 0 1 1 16 0v144c0 4-4 8-8 8z" fill="#b4b6bc"/></g><g><path d="M160 400c-4 0-8-4-8-8V248a8 8 0 1 1 16 0v144c0 4-4 8-8 8z" fill="#b4b6bc"/></g><g><path d="M376 256H136a8 8 0 0 1-4-15l120-64h8l120 64a8 8 0 0 1-4 15zm-208-16h176l-88-47-88 47z" fill="#868491"/></g><g><path d="M128 368c-4 0-8-4-8-8v-8a8 8 0 1 1 16 0v8c0 4-4 8-8 8zM104 368c-4 0-8-4-8-8v-8a8 8 0 1 1 16 0v8c0 4-4 8-8 8zM80 368c-4 0-8-4-8-8v-8a8 8 0 1 1 16 0v8c0 4-4 8-8 8zM56 368c-4 0-8-4-8-8v-8a8 8 0 1 1 16 0v8c0 4-4 8-8 8zM128 336c-4 0-8-4-8-8v-24a8 8 0 1 1 16 0v24c0 4-4 8-8 8zM104 336c-4 0-8-4-8-8v-24a8 8 0 1 1 16 0v24c0 4-4 8-8 8zM80 336c-4 0-8-4-8-8v-24a8 8 0 1 1 16 0v24c0 4-4 8-8 8zM56 336c-4 0-8-4-8-8v-24a8 8 0 1 1 16 0v24c0 4-4 8-8 8z" fill="#5c546a"/></g><g><path d="M272 232h-32a8 8 0 1 1 0-16h32a8 8 0 1 1 0 16z" fill="#868491"/></g><g><path d="M504 400H8a8 8 0 1 1 0-16h496a8 8 0 1 1 0 16z" fill="#5c546a"/></g></svg>