<svg xmlns="http://www.w3.org/2000/svg" viewBox="0 0 512 512"><path fill="#ece7ea" d="M76.1 57.3h359.8V512H76.1z"/><path d="M340.1 31.1h-53a31.1 31.1 0 0 0-62.2 0h-53a15 15 0 0 0-15 15v37.4H355V46.1a15 15 0 0 0-15-15z" fill="#8b7e7f"/><path fill="#fff" d="M156.9 418.1h41v41h-41z"/><path d="M355.1 447.1H232a8.5 8.5 0 1 1 0-17H355a8.5 8.5 0 1 1 0 17z" fill="#c2b8b9"/><path fill="#fff" d="M156.9 324.2h41v41h-41z"/><path d="M355.1 353.2H232a8.5 8.5 0 1 1 0-17H355a8.5 8.5 0 1 1 0 17z" fill="#c2b8b9"/><path fill="#fff" d="M156.9 230.3h41v41h-41z"/><path d="M355.1 259.4H232a8.5 8.5 0 1 1 0-17.1H355a8.5 8.5 0 1 1 0 17z" fill="#c2b8b9"/><path fill="#fff" d="M156.9 136.5h41v41h-41z"/><path d="M355.1 165.5H232a8.5 8.5 0 1 1 0-17.1H355a8.5 8.5 0 1 1 0 17z" fill="#c2b8b9"/></svg>