<svg version="1" xmlns="http://www.w3.org/2000/svg" viewBox="0 0 512 512"><g fill="#d7deed"><path d="M88 327h18v44H88zM168 291h18v79h-18zM327 256h18v115h-18zM406 168h18v203h-18zM247 212h18v159h-18z"/></g><path d="M97 335a9 9 0 0 1-3-16l77-35 78-87c3-3 8-4 12-1l73 48 74-91a9 9 0 1 1 14 11l-80 98c-3 3-8 4-11 1l-74-48-74 82-3 2-79 36h-4z" fill="#8f96ac"/><path d="M494 433H18c-10 0-18-8-18-18v-9c0-5 4-9 9-9h494c5 0 9 4 9 9v9c0 10-8 18-18 18z" fill="#959cb3"/><path d="M286 415h-60c-3 0-6-2-8-5l-6-13h88l-6 13c-2 3-5 5-8 5z" fill="#707487"/><path d="M468 79H44c-14 0-26 12-26 27v291h476V106c0-15-12-27-26-27zm0 283c0 5-4 9-9 9H53c-5 0-9-4-9-9V115c0-5 4-9 9-9h406c5 0 9 4 9 9v247z" fill="#afb9d2"/><circle cx="256" cy="203" r="18" fill="#ffd782"/><circle cx="177" cy="291" r="18" fill="#ff6464"/><circle cx="415" cy="159" r="18" fill="#9be6d2"/><circle cx="335" cy="256" r="18" fill="#c3e678"/><circle cx="97" cy="327" r="18" fill="#00d2ff"/></svg>