<svg version="1" xmlns="http://www.w3.org/2000/svg" viewBox="0 0 512 512"><path d="M88 160c-82 0-73 100-72 172 0 3 1 5 3 7a136 136 0 0 0 138 0c2-2 4-4 4-7 0-72 9-172-73-172z" fill="#694b4b"/><path d="M83 160c-76 4-68 101-67 172 0 3 1 5 3 7 9 5 34 18 69 18l21-145" fill="#5a4146"/><path d="M88 160c-46 0-50 56-50 56 27-4 44 7 71-4L88 357c35 0 60-13 69-18 2-2 4-4 4-7 0-72 9-172-73-172z" fill="#694b4b"/><path d="M161 332c0-62 7-145-43-167-1 5-3 18 1 26 11 21 21 21 31 36 11 57-19 118-29 126 17-4 30-11 36-14 2-2 4-4 4-7z" fill="#785550"/><path d="M167 348l-46-20c-4-1-7-5-7-9v-13H62v13c0 4-2 8-6 9l-46 20c-6 2-10 8-10 14v21c0 6 5 10 10 10h156c6 0 10-4 10-10v-21c0-6-3-12-9-14z" fill="#e6af78"/><path d="M167 348l-45-19-34 15-34-15-44 19c-6 2-10 8-10 14v21c0 6 5 10 10 10h156c6 0 10-4 10-10v-21c0-6-3-12-9-14z" fill="#eff2fa"/><path d="M114 306H62v13c0 4-2 8-6 9l-7 3c55 14 65-25 65-25z" fill="#d29b6e"/><g fill="#e4eaf6"><path d="M25 368L4 351c-2 3-4 7-4 11v21c0 6 5 10 10 10h21v-13c0-5-2-9-6-12zM176 383v-21c0-4-1-8-4-11l-21 17c-4 3-6 7-6 12v13h21c6 0 10-4 10-10zM89 383h-2c-2 0-4-2-4-5v-34h10v34c0 3-2 5-4 5z"/><path d="M88 344l-29-23c-2-1-5-1-6 1l-6 9 18 26c1 2 4 2 6 0l17-13zM88 344l30-23c2-1 5-1 6 1l6 9-18 26c-2 2-5 2-6 0l-18-13z"/></g><path d="M114 206c-26 26-77 6-77 47l4 31c0 6 4 13 10 16l30 16c4 3 10 3 15 0l29-16c6-3 10-10 11-16l4-37v-7c-2-14-21-23-26-34z" fill="#f0c087"/><path d="M37 253l4 31c0 6 4 13 10 16l30 16c3 2 7 3 10 2 0 0-15-5-24-29-2-7-6-46-3-51 7-9 42-10 53-27l-1-2-1-1-1-2c-26 26-77 6-77 47z" fill="#e6af78"/><path d="M126 383h-13c-5 0-9 4-9 9v1h31v-1c0-5-4-9-9-9z" fill="#e4eaf6"/><path fill="#e6af78" d="M443 324v-29h-74v29l37 32z"/><path d="M499 337l-50-12-2-1-41 24-39-25-4 2-50 12c-8 2-13 8-13 16v32c0 4 4 8 8 8h196c4 0 8-4 8-8v-32c0-8-5-14-13-16z" fill="#eff2fa"/><path d="M369 295v30c47 17 74-25 74-25v-5h-74z" fill="#d29b6e"/><path d="M353 201l4 78c0 8 4 14 9 19l17 12c5 4 10 5 15 5h16c6 0 11-1 15-5l17-12c6-5 9-11 10-19l3-78H353z" fill="#f0c087"/><path d="M394 218c16 0 41-4 46-17h-87l4 78c0 8 4 14 9 19l17 12c5 4 10 5 15 5h8c-8 0-24-16-24-36v-49c0-4 4-12 12-12z" fill="#e6af78"/><path d="M482 366l26-23c3 2 4 6 4 10v32c0 4-4 8-8 8h-29v-12c0-5 3-11 7-15z" fill="#e4eaf6"/><path fill="#5b5d6e" d="M416 393h-20l2-37h16z"/><path d="M416 348h-20v2c0 6 4 10 10 10s10-4 10-10v-2z" fill="#515262"/><g fill="#e4eaf6"><path d="M369 314l37 34s-10 5-23 16c-3 2-7 1-8-2l-18-38 6-9c1-2 4-2 6-1zM443 314l-37 34s11 5 23 16c3 2 7 1 9-2l17-38-6-9c-1-2-4-2-6-1z"/></g><path d="M431 174l4 27c17 4 20 31 20 39l1 4 7 10s-2-17 8-28c0 0 4-68-40-52z" fill="#785550"/><path d="M467 253l-5 18c0 2-2 4-4 4-3 0-5-2-5-5l-3-18c0-5 4-10 9-10s9 5 8 11z" fill="#f0c087"/><path d="M357 167l6 4c-27 20-22 55-22 55 8 8 8 28 8 28l8-8s-3-23 12-32 27-4 40-4c34 0 44-13 42-29-1-8-13-25-45-24-13 0-37 4-49 10z" fill="#694b4b"/><path d="M355 206s-5-17 8-35c-27 20-22 55-22 55 8 8 8 28 8 28l8-8s-3-23 12-32 27-4 40-4l15-1c-27 0-42-20-69-3z" fill="#5a4146"/><path d="M345 253l5 18c0 2 2 4 5 4 2 0 4-2 5-5l2-18c0-5-3-10-8-10h-1c-5 0-9 5-8 11z" fill="#e6af78"/><path d="M455 385h-20c-5 0-9 3-9 8h37c0-5-4-8-8-8z" fill="#e4eaf6"/><path d="M256 58c-139 0-124 169-123 292 0 5 2 9 6 12a231 231 0 0 0 234 0c4-3 7-7 7-12 0-123 16-292-124-292z" fill="#694b4b"/><path d="M247 58c-130 7-115 172-114 292 0 5 2 9 6 12 16 9 58 31 117 31l35-247" fill="#5a4146"/><path d="M256 58c-79 0-85 95-85 95 46-7 74 12 120-7l-35 247c59 0 102-22 117-31 4-3 7-7 7-12 0-123 16-292-124-292z" fill="#694b4b"/><path d="M380 350c0-105 12-246-74-283-1 8-4 29 3 43 18 36 35 36 53 62 18 97-34 200-51 214 30-7 52-18 62-24 4-3 7-7 7-12z" fill="#785550"/><path d="M390 377l-79-33c-6-2-11-9-11-16v-21h-88v21c0 7-4 14-11 16l-79 33c-9 4-16 14-16 25v35c0 10 8 18 18 18h264c10 0 18-8 18-18v-35c0-11-6-21-16-25z" fill="#e6af78"/><path d="M390 377l-76-32-58 25-57-25-77 32c-9 4-16 14-16 25v35c0 10 8 18 18 18h264c10 0 18-8 18-18v-35c0-11-6-21-16-25z" fill="#b4e1fa"/><path d="M300 307h-88v21c0 7-4 14-11 16l-12 5c94 24 111-42 111-42z" fill="#d29b6e"/><g fill="#a0d2f0"><path d="M149 411l-35-28c-5 5-8 12-8 19v35c0 10 8 17 18 17h35v-22c0-8-4-16-10-21zM406 437v-35c0-7-3-14-7-19l-36 28c-6 5-10 13-10 21v23h35c10 0 18-8 18-18zM256 437c-5 0-9-4-9-9v-58h18v58c0 5-4 9-9 9z"/><path d="M256 370l-50-38c-4-2-8-1-10 2l-10 15 31 43c2 4 7 4 10 2l29-24zM256 370l51-38c3-2 8-1 10 2l10 15-31 43c-3 4-7 4-10 2l-30-24z"/></g><path d="M300 137c-44 44-130 9-130 79l5 52c1 12 8 22 18 28l50 28c8 4 18 4 26 0l50-28c10-6 17-16 18-28l7-61v-14c-3-22-35-38-44-56z" fill="#f0c087"/><path d="M170 216l5 52c1 12 8 22 18 28l50 28c6 3 12 4 18 3 0 0-25-8-40-49-5-12-11-79-6-87 11-16 72-17 90-47l-2-3-1-1-2-3c-44 44-130 9-130 79z" fill="#e6af78"/><path d="M327 437h-36c-4 0-8 4-8 9v8h53v-8c0-5-4-9-9-9z" fill="#a0d2f0"/></svg>