<svg xmlns="http://www.w3.org/2000/svg" viewBox="0 0 512 512"><path fill="#ccc" d="M304 473.7h-96l8-33.5 7.8-32.3h64.4l7.8 32.3z"/><path fill="#999" d="M296 440.2h-80l7.8-32.3 26.1-32 38.3 32z"/><path d="M512 62.8v311.3a33.9 33.9 0 0 1-33.9 33.8H34A33.9 33.9 0 0 1 0 374.1V62.8A33.9 33.9 0 0 1 33.9 29H478A33.9 33.9 0 0 1 512 63z" fill="#ccc"/><path d="M512 62.8v311.3a33.9 33.9 0 0 1-33.9 33.8H206L312.2 29h166A33.9 33.9 0 0 1 512 63z" fill="#e6e6e6"/><path fill="#9bd7f4" d="M0 75.4h512v286H0z"/><path fill="#c8edfc" d="M512 75.4v286H219l80.2-286z"/><path fill="#e6e6e6" d="M177.7 464.4h156.6V483H177.7z"/><g fill="#b3b3b3"><path d="M0 69.8h512V81H0zM0 356.8h512V368H0z"/></g><g fill="#f94b54"><path d="M402.3 229v-90.7h-14L323 226.8v21h60.6v41.5h18.6v-41.6h11.6v-18.6h-11.6zm-18.6 0h-39.1l39-53v53zM288.3 151.7a45.5 45.5 0 0 0-32.3-13.4 45.7 45.7 0 0 0-45.7 45.7v69a45.7 45.7 0 0 0 91.4 0v-69c0-12.6-5.2-24-13.4-32.3zM283 252.9a27 27 0 0 1-54 0v-69a27 27 0 0 1 54 0v69zM174.2 229v-90.7h-14L95 226.8v21h60.6v41.5h18.6v-41.6h11.6v-18.6h-11.6zm-18.6 0h-39.1l39-53v53z"/></g><g fill="#f98791"><path d="M301.7 184v69a45.7 45.7 0 0 1-64 41.8l5-18.3a27 27 0 0 0 40.2-23.6v-69c.1-7.8-3.2-14.8-8.6-19.8l5.4-19.2a45.5 45.5 0 0 1 22 39zM402.3 229v-90.7h-14L323 226.8v21h60.6v41.5h18.6v-41.6h11.6v-18.6h-11.6zm-18.6 0h-39.1l39-53v53z"/></g></svg>