<svg version="1" xmlns="http://www.w3.org/2000/svg" viewBox="0 0 411 411"><path d="M246 216c32-30 71-68 77-101 3-23 0-43-11-57-12-15-29-23-53-26h-6c-18 0-35 6-48 17a76 76 0 0 0-54-17c-24 3-41 11-52 26-11 14-15 34-11 57 5 33 45 71 77 101l20 20c4 3 12 9 20 9 9 0 16-6 20-9l21-20z" fill="#d43d21"/><path d="M149 267c-2-1-16-11-54-14l-6-3a164 164 0 0 1-7-5l-9-11c-18-25-36-31-39-32-4-1-6-2-7-4l-4-37c-2-14-3-25-11-28-3-1-4 0-6 1-2 2-3 13-3 20l-3 52c0 14 24 67 36 80s71 45 71 45c2 2 13 11 13 23v13s-1 12 12 12h45c13 0 11-12 11-16v-7l1-13v-18c-8-35-37-55-40-58zM407 154c0-7-1-18-3-20-2-1-3-2-5-1-9 3-10 14-12 28l-4 37c-1 2-3 3-7 4-2 1-21 7-39 32l-9 11a26 26 0 0 1-7 5l-6 3c-38 3-52 13-54 14-3 3-31 23-39 58-1 4-2 13-1 18l2 13v7c0 4-3 16 10 16h45c13 0 12-12 12-12v-13c0-12 12-21 14-23 0 0 62-36 70-45s35-67 36-80-3-52-3-52z" fill="#dec8ae"/></svg>