<svg viewBox="0 -32 512 512" xmlns="http://www.w3.org/2000/svg"><path d="M85.3 99.5H113v98.6H85.3zm0 0M399 99.5h27.7v98.6H399zm0 0" fill="#097789"/><path d="M412.9 65H99v56.4H413a28.2 28.2 0 1 0 0-56.4zm0 0" fill="#1a94af"/><path d="M458.3 188.9h-91c-2 0-4.2.7-6 2l-47.6 34.7v185.8h177.7c11.4 0 20.6-9.2 20.6-20.6v-160c0-3.3-1.6-6.4-4.2-8.3l-43.4-31.6c-1.8-1.3-3.9-2-6-2zm0 0" fill="#f4810e"/><path d="M512 235.9v155c0 11.3-9.2 20.5-20.6 20.5H156.6V225.6h345.1c5.7 0 10.3 4.6 10.3 10.3zm0 0" fill="#ffbd48"/><path d="M464.1 306.5a89.3 89.3 0 0 0-77.3-25.4c-4 0-8-1.7-11-4.6l-50.9-51H187.2L307 345.5c3.4 3.4 5 8.2 4.4 13.2a89.9 89.9 0 0 0 9.4 52.8h159.6a89.4 89.4 0 0 0 10-39.6 89.2 89.2 0 0 0-26.3-65.3zm-43 75.1l-1.8 7.1-7.2 2-5.2 5.2-7.1-2-7.2 2-5.2-5.2-7.1-2-2-7-5.1-5.3 1.9-7.1-2-7.2 5.3-5.2 1.9-7.1 7.1-2 5.2-5.2 7.2 2 7-2 5.3 5.3 7.2 1.9 1.9 7.1 5.2 5.2-2 7.2 2 7zm0 0" fill="#ff9c26"/><path d="M127.3 93.2a28.2 28.2 0 1 1-56.3 0 28.2 28.2 0 0 1 56.3 0zm0 0" fill="#62bce0"/><path d="M223 227.6v163.2c0 11.4-9.2 20.6-20.6 20.6H20.6A20.6 20.6 0 0 1 0 390.8v-160c0-3.3 1.6-6.4 4.2-8.3l43.4-31.6c1.8-1.3 3.9-2 6-2h117.8a4 4 0 0 1 2.4.8l47.5 34.6a4 4 0 0 1 1.7 3.3zm0 0" fill="#ffdf4a"/><path d="M223 227.6v33.8l-70-70c-.8-.9-1.7-1.7-2.7-2.5h21a4 4 0 0 1 2.5.8l47.5 34.6a4 4 0 0 1 1.7 3.3zm0 0" fill="#ffbd48"/><path d="M480.3 262.6h-21a7.7 7.7 0 0 1 0-15.5h21a7.7 7.7 0 0 1 0 15.5zm0 0M480.3 282h-21a7.7 7.7 0 0 1 0-15.5h21a7.7 7.7 0 1 1 0 15.5zm0 0" fill="#1a94af"/><path d="M146 299H80c-5.7 0-10.3-4.6-10.3-10.2v-19.4c0-5.7 4.6-10.3 10.3-10.3h66c5.6 0 10.2 4.6 10.2 10.3v19.4c0 5.6-4.6 10.3-10.3 10.3zm0 0" fill="#d1ede7"/><path d="M367.1 285.2L210.4 128.5A62.8 62.8 0 0 1 192.3 80a74.8 74.8 0 0 0-30.6-67.3C136.9-4.7 104.4-3.6 78 12.3a5 5 0 0 0 .6 8.8l37 16.7a19 19 0 0 1 9.6 25.3l-18 39.9a19 19 0 0 1-25.2 9.5L41 94a5 5 0 0 0-7 5 73 73 0 0 0 30.3 53.4 71.3 71.3 0 0 0 47.6 12.2c18.5-1.6 36.8 5 49.9 18l154 154a28 28 0 0 1 7.9 23.5 77.4 77.4 0 0 0 24.7 67.3 77.6 77.6 0 1 0 42-134.2 27.8 27.8 0 0 1-23.3-8zm65.1 65.3l8 8-3 10.8 3 10.8-8 8-2.9 10.7-10.8 3-8 7.9-10.7-3-10.9 3-7.9-8-10.8-2.9-2.9-10.8-8-8 3-10.7-3-10.9 8-7.9 2.9-10.8 10.8-3 8-7.8 10.8 2.9 10.8-3 8 8 10.7 2.9zm0 0" fill="#abddd4"/><path d="M297.5 281.1l-98.9-98.8a11.2 11.2 0 0 1 16-16l98.8 99a11.2 11.2 0 0 1-16 15.8zm0 0" fill="#1a94af"/></svg>