<svg version="1" xmlns="http://www.w3.org/2000/svg" viewBox="0 0 512 512"><path d="M490 113H22c-12 0-22 10-22 22v242c0 12 10 22 22 22h468c12 0 22-10 22-22V135c0-12-10-22-22-22z" fill="#d2f5ff"/><g fill="#8ba7bc"><path d="M0 326l24-13c6-3 10-9 10-16v-82c0-7-4-13-10-16L0 186v140zM490 113h-56v286h56c12 0 22-10 22-22V135c0-12-10-22-22-22z"/></g><path d="M490 113h-23c12 0 22 10 22 22v242c0 12-10 22-22 22h23c12 0 22-10 22-22V135c0-12-10-22-22-22z" fill="#718a9e"/><circle cx="473" cy="256" r="16" fill="#ebeae6"/><path d="M434 278l-92 38-4-2H107v33h149v52h88v-50l90-11v-60z" fill="#75dc5e"/><path d="M231 347v-3c0-17-13-30-29-30h-62c-16 0-30 13-30 30v3h121z" fill="#2aad52"/><path d="M315 308h-36l-9 12c-2 2-3 5-3 9l4 25c0 1 2 2 4 1l22-13 22 13c1 1 3 0 4-1l3-25c1-4 0-7-2-9l-9-12z" fill="#ebeae6"/><path d="M279 284v35l1 2 14 17c1 2 4 2 6 0l14-17 1-2v-35h-36z" fill="#f2a077"/><path d="M348 230h-3v-24c0-24-19-43-43-43h-10c-24 0-43 19-43 43v24h-3c-7 0-12 5-12 11v5c0 6 5 11 12 11h3a48 48 0 0 0 95 0h4c6 0 11-5 11-11v-5c0-6-5-11-11-11z" fill="#fca"/><path d="M348 230h-3v-24c0-24-19-43-43-43h-12c22 1 40 20 40 43v51a48 48 0 0 1-40 45 48 48 0 0 0 40-13 48 48 0 0 0 14-29v-3h4c6 0 11-5 11-11v-5c0-6-5-11-11-11z" fill="#f2a077"/><path d="M297 277a26 26 0 0 1-24-16 7 7 0 0 1 12-5l3 5c2 2 5 3 9 3 5 0 10-3 12-8a7 7 0 0 1 12 5c-4 10-14 16-24 16z" fill="#475d6d"/><path d="M234 148h69c23 0 42 18 42 41v17h-83c-15 0-28-13-28-28v-30z" fill="#f9dc6a"/><path d="M303 148h-15c23 0 41 18 41 41v17h16v-17c0-23-19-41-42-41z" fill="#e5ac51"/><path d="M215 399H94v-55c0-17 13-30 30-30h61c17 0 30 13 30 30v55z" fill="#2bb4f3"/><path d="M185 314h-13c17 0 30 13 30 30v55h13v-55c0-17-13-30-30-30z" fill="#1687c4"/><path d="M137 284v36c0 10 8 18 17 18 10 0 18-8 18-18v-36h-35z" fill="#f2a077"/><path d="M206 230h-4v-26c0-19-15-35-34-35h-27c-19 0-34 16-34 35v26h-4c-6 0-11 5-11 11v5c0 6 5 11 11 11h4a48 48 0 0 0 95 0h4c6 0 11-5 11-11v-5c0-6-5-11-11-11z" fill="#fca"/><path d="M206 230h-4v-24c0-7-2-14-5-20-6-10-17-17-29-17h-1c12 8 21 21 21 37v51c-2 23-19 42-41 45a48 48 0 0 0 55-45h4c6 0 11-5 11-11v-5c0-6-5-11-11-11z" fill="#f2a077"/><g fill="#475d6d"><path d="M154 277a26 26 0 0 1-23-16 7 7 0 0 1 12-5l2 5a13 13 0 0 0 21-5 7 7 0 0 1 12 5c-4 10-13 16-24 16zM107 207h14c3 0 7-2 9-6l3-8c1-2 4-3 6-1l16 13 7 2h40v-29c0-15-12-27-27-27h-32c-5 0-9 4-9 9v4h-14c-7 0-13 6-13 13v30z"/></g><path d="M175 151h-15c15 0 27 12 27 27v29h15v-29c0-15-12-27-27-27z" fill="#2c3f4f"/><path d="M106 352H96c-6 0-10-5-10-10v-23c0-6 4-10 10-10h10c4 0 8 3 8 7v28c0 5-4 8-8 8z" fill="#fca"/><g fill="#1687c4"><path d="M122 398v-31a8 8 0 0 0-15 0v32h14l1-1zM202 398v-31a8 8 0 0 0-15 0v31l1 1h14v-1z"/></g><g fill="#8ba7bc"><path d="M384 452c-4 0-7-3-7-7v-17a8 8 0 0 1 15 0v17c0 4-4 7-8 7zM384 504c-4 0-7-3-7-7v-17a8 8 0 0 1 15 0v17c0 4-4 7-8 7zM419 470h-17a8 8 0 0 1 0-15h17a8 8 0 0 1 0 15zM367 470h-17a8 8 0 0 1 0-15h17a8 8 0 0 1 0 15zM128 40c-4 0-8-4-8-8V15a8 8 0 0 1 15 0v17c0 4-3 8-7 8zM128 92c-4 0-8-4-8-8V67a8 8 0 0 1 15 0v17c0 4-3 8-7 8zM162 57h-17a8 8 0 0 1 0-15h17a8 8 0 0 1 0 15zM110 57H93a8 8 0 0 1 0-15h17a8 8 0 0 1 0 15z"/></g><path d="M458 113c-35 9-43 16-52 52-9-36-16-43-52-52 36-9 43-17 52-52 9 35 17 43 52 52z" fill="#f9dc6a"/></svg>