<svg version="1" xmlns="http://www.w3.org/2000/svg" height="300" width="300"><circle cx="150" cy="150" r="135" stroke="#A92C32" stroke-width="3" fill="none"/>3<circle cx="150" cy="150" r="130" stroke="#A92C32" fill="none"/><circle cx="150" cy="150" r="95" stroke="#A92C32" stroke-width="3" fill="none"/><circle cx="150" cy="150" r="90" stroke="#A92C32" fill="#fff"/><path d="M70 65.5l-3 9.4 7.5-6h-9.3l7.8 6zM205 242.5l-3 9.4 7.5-6h-9.3l7.8 6zM38 155.5l-3 9.4 7.5-6h-9.3l7.8 6zM100 245.5l-3 9.4 7.5-6h-9.3l7.8 6zM170 35.5l-3 9.4 7.5-6h-9.3l7.8 6zM250 95.5l-3 9.4 7.5-6h-9.3l7.8 6zM257 180.5l-3 9.4 7.5-6h-9.3l7.8 6z" stroke="#A92C32" stroke-width="5"/><text font-family="Verdana" fill="#A92C32" font-size="50" transform="rotate(-30 20 40)"><tspan x="30" y="190">Well</tspan> <tspan x="20" y="245">done !</tspan></text></svg>