<svg version="1" xmlns="http://www.w3.org/2000/svg" viewBox="0 0 512 512"><path d="M465 285c0 62-40 147-88 193-22 21-45 34-67 34-14 0-28-2-40-6-16-5-33-5-50 0-12 4-26 6-40 6-23 0-47-14-69-37-47-47-86-130-86-190 0-89 53-143 103-156 24-6 52-2 75 4a168 168 0 0 0 85 0c22-6 50-10 74-4 50 13 103 67 103 156z" fill="#f94848"/><path d="M377 478c-60 11-106 8-140 0-56-14-98-62-105-119-18-144 76-186 76-186 28 12 59 6 59 6-20-20 7-43 7-43-24 4-48 3-71-3s-51-10-75-4C78 142 25 196 25 285s84 227 155 227c14 0 28-2 40-6 17-5 34-5 50 0 12 4 26 6 40 6 22 0 45-13 67-34z" fill="#e23d3d"/><path d="M487 6s-13 86-78 111c-62 24-117-41-140-36l-3 1c1-2 26-77 90-81 65-5 100 24 131 5z" fill="#c7f492"/><path d="M487 6s-40 48-95 48c-49 0-109 22-123 27l-3 1c1-2 26-77 90-81 65-5 100 24 131 5z" fill="#a3e261"/><ellipse transform="rotate(-96 394 247)" cx="394" cy="247" rx="44" ry="29" fill="#fc8181"/><path d="M291 166c0 11-16 19-37 21a99 99 0 0 1-18 0c-21-2-37-11-37-21h92z" fill="#e23d3d"/><path d="M280 81l-33 51a282 282 0 0 1 7 55 99 99 0 0 1-18 0l-2-21c-6-48-25-83-25-83a9 9 0 0 1 17-9c0 1 7 14 14 35l25-38a9 9 0 1 1 15 10z" fill="#b25719"/></svg>