<svg xmlns="http://www.w3.org/2000/svg" xmlns:xlink="http://www.w3.org/1999/xlink" width="300" height="300" version="1"><defs><linearGradient id="a"><stop offset="0" stop-color="#fff" stop-opacity="0"/><stop offset="1" stop-color="#fff"/></linearGradient><linearGradient xlink:href="#a" id="d" x1="191" y1="156" x2="148" y2="10" gradientUnits="userSpaceOnUse"/><linearGradient id="b"><stop offset="0" stop-color="#cafbca"/><stop offset="0" stop-color="#87de87"/><stop offset="1" stop-color="#37c837"/><stop offset="1" stop-color="#1eb01e"/></linearGradient><radialGradient xlink:href="#b" id="c" cx="-100" cy="-278" fx="-100" fy="-278" r="155" gradientUnits="userSpaceOnUse" gradientTransform="matrix(1.267 0 0 1.73 27 204)"/></defs><path d="M54-394a154 154 0 1 1-308 0 154 154 0 1 1 308 0z" transform="matrix(.94975 0 0 .94975 245 524)" stroke="#2ca02c" fill="url(#c)" stroke-width="4"/><path d="M150 10C74 10 12 71 10 147c39 35 77 36 96 27 20-9 36-38 62-45 26-6 40-5 81 12 23 9 20-22 37-25-15-61-70-106-136-106z" fill="url(#d)"/></svg>