<svg version="1" xmlns="http://www.w3.org/2000/svg" viewBox="0 0 512 512"><path d="M42 64h428c23 0 42 19 42 42v300c0 23-19 42-42 42H42c-23 0-42-19-42-42V106c0-23 19-42 42-42z" fill="#c8ded5"/><path d="M512 256v150c0 23-19 42-42 42H42c-23 0-42-19-42-42V256h512z" fill="#91aed8"/><path d="M140 168a41 41 0 1 1 0 82 41 41 0 0 1 0-82z" fill="#ffd194"/><path d="M80 344v-47c0-26 21-47 47-47h25c26 0 48 21 48 47v47H80z" fill="#415e5c"/><path d="M132 85l11-21h23l-16 30a10 10 0 1 1-18-9zm146 14a10 10 0 0 0 13-5l17-30h-23l-11 21c-3 5-1 11 4 14zm-71 0a10 10 0 0 0 14-5l16-30h-23l-11 21c-3 5-1 11 4 14zm240 314c-5-2-11 0-14 5l-16 30h23l11-21c2-5 0-11-4-14zM65 99a10 10 0 0 0 14-5l16-30H72L61 85c-2 5 0 11 4 14zm284 0a10 10 0 0 0 13-5l16-30h-22l-12 21c-2 5 0 11 5 14zM234 413c-5-2-11 0-13 5l-17 30h23l11-21c3-5 1-11-4-14zm-141 0c-5-2-11 0-14 5l-16 30h23l11-21c2-5 0-11-4-14zm283 0c-5-2-11 0-14 5l-16 30h23l11-21c3-5 1-11-4-14zm43-314a10 10 0 0 0 14-5l16-30h-23l-11 21c-2 5 0 11 4 14zM163 413c-5-2-11 0-13 5l-16 30h22l12-21c2-5 0-11-5-14zm142 0c-5-2-11 0-14 5l-16 30h23l11-21c3-5 1-11-4-14z"/><path d="M272 199c0-6 4-10 10-10h70a10 10 0 1 1 0 20h-70c-6 0-10-5-10-10zm10 72h153a10 10 0 1 0 0-20H282a10 10 0 1 0 0 20zm153 32H282a10 10 0 1 0 0 20h153a10 10 0 1 0 0-20zm-283-53h-12v94h60v-47c0-26-22-47-48-47z" fill="#284848"/></svg>