<svg version="1" xmlns="http://www.w3.org/2000/svg" viewBox="0 0 496 496"><path d="M248 0a248 248 0 1 0 0 496 248 248 0 0 0 0-496z" fill="#d61e1e"/><path d="M248 39a209 209 0 1 0 0 418 209 209 0 0 0 0-418z" fill="#f4eded"/><g fill="#5b5147"><path d="M151 285c15 2 23-4 32-7 8-2 16-2 25 0 7 2 13 6 21 7 16 2 30-8 44-8 19-1 34 14 53 6l-61-112 79-15c23-6 10-44-15-39l-84 16c-29 4-42 17-33 36l26 50-107 60c7 1 13 5 20 6zm211 18c-19-4-31 8-49 8-11 0-20-6-31-8-20-3-31 8-48 8-12 0-22-7-33-8-18-2-29 8-44 8-11 0-21-7-34-8-19-2-28 8-44 8v28c16-2 29-10 46-8 11 1 21 8 32 8 10 0 20-7 32-8 21-2 29 8 46 8 11 0 21-7 33-8 19-2 30 8 45 8 11 0 19-6 29-8 20-4 33 7 49 8v-28c-13 0-20-6-29-8z"/><circle cx="355" cy="235" r="38"/></g><path d="M86 60L60 86l350 350 26-26L86 60z" fill="#d61e1e"/></svg>