<svg version="1" xmlns="http://www.w3.org/2000/svg" viewBox="0 0 512 512"><path d="M301 44h-91c-3 0-5-2-5-5V5c0-3 2-5 5-5h91c3 0 5 2 5 5v34c0 3-2 5-5 5z" fill="#98d9ff"/><path d="M301 44h-21V0h21c3 0 5 2 5 5v34c0 3-2 5-5 5z" fill="#60c4ff"/><path d="M344 117l-59-37h-2V45h-56v35l-59 37c-6 4-9 10-9 17v39c0 12 9 21 20 21h155c11 0 20-9 20-21v-39c0-7-3-13-10-17z" fill="#d0ecf9"/><path d="M334 303H179c-11 0-20-9-20-20v-69c0-11 9-20 20-20h155c11 0 20 9 20 20v69c0 11-9 20-20 20z" fill="#98d9ff"/><path d="M334 512H179c-11 0-20-9-20-20V323c0-11 9-20 20-20h155c11 0 20 9 20 20v169c0 11-9 20-20 20z" fill="#d0ecf9"/><path d="M354 324v167c0 12-9 21-20 21h-29V303h29c11 0 20 9 20 21z" fill="#96dbfa"/><path d="M354 215v67c0 12-9 21-20 21h-29V194h29c11 0 20 9 20 21z" fill="#60c4ff"/><path d="M354 134v39c0 12-9 21-20 21h-29V92l39 25c7 4 10 10 10 17z" fill="#96dbfa"/><g fill="#60c4ff"><path d="M280 145h-49a8 8 0 1 1 0-16h49a8 8 0 1 1 0 16zM255 351h-96a8 8 0 1 1 0-15h96a8 8 0 1 1 0 15zM255 435h-96a8 8 0 1 1 0-15h96a8 8 0 1 1 0 15zM353 396h-96a8 8 0 1 1 0-16h96a8 8 0 1 1 0 16zM353 481h-73a8 8 0 1 1 0-16h73a8 8 0 1 1 0 16z"/></g></svg>