<svg width="18" height="18" xmlns="http://www.w3.org/2000/svg"><g fill="#000" fill-rule="evenodd"><path d="M9 3.5a5 5 0 0 1 3.5 1.3L15 2.3A9 9 0 0 0 1 5l2.9 2.3A5.4 5.4 0 0 1 9 3.5z" fill="#EA4335"/><path d="M17.6 9.2c0-.7 0-1.3-.2-1.8H9v3.3h5c-.1.8-.7 2-1.9 3l2.9 2.1a8.8 8.8 0 0 0 2.6-6.6z" fill="#4285F4"/><path d="M3.9 10.8a5.5 5.5 0 0 1 0-3.6L.9 5a9 9 0 0 0 0 8l3-2.2z" fill="#FBBC05"/><path d="M9 18c2.4 0 4.5-.8 6-2.2L12 13.6c-.7.6-1.8 1-3.1 1a5.4 5.4 0 0 1-5.1-3.8L.9 13A9 9 0 0 0 9 18z" fill="#34A853"/><path fill="none" d="M0 0h18v18H0z"/></g></svg>