<svg width="48" height="48" xmlns="http://www.w3.org/2000/svg"><path fill="none" d="M-1-1h582v402H-1z"/><g><circle r="24" fill="#444" cy="24" cx="24"/><path fill="#FFF" d="M31.2 12.3H16.8c-2.5 0-4.5 2-4.5 4.5V31.2c0 2.5 2 4.5 4.5 4.5h14.4c2.5 0 4.5-2 4.5-4.5V16.8c0-2.5-2-4.5-4.5-4.5zm1.3 2.7h.5v4h-4v-4h3.5zm-11.8 6.6c.7-1 2-1.7 3.3-1.7a4.2 4.2 0 0 1 4.1 4.1c0 2.3-1.9 4.1-4.1 4.1s-4.1-1.8-4.1-4.1c0-.9.3-1.7.8-2.4zm12.7 9.6c0 1.2-1 2.2-2.2 2.2H16.8c-1.2 0-2.2-1-2.2-2.2v-9.6h3.5c-.3.7-.5 1.6-.5 2.4 0 3.5 2.9 6.4 6.4 6.4 3.5 0 6.4-2.9 6.4-6.4 0-.8-.2-1.7-.5-2.4h3.5v9.6z"/></g></svg>