<?xml version="1.0" encoding="utf-8"?>
<!-- Svg Vector Icons : http://www.onlinewebfonts.com/icon -->
<!DOCTYPE svg PUBLIC "-//W3C//DTD SVG 1.1//EN" "http://www.w3.org/Graphics/SVG/1.1/DTD/svg11.dtd">
<svg version="1.1" xmlns="http://www.w3.org/2000/svg" xmlns:xlink="http://www.w3.org/1999/xlink" x="0px" y="0px" viewBox="0 0 1000 1000" enable-background="new 0 0 1000 1000" xml:space="preserve">
<metadata> Svg Vector Icons : http://www.onlinewebfonts.com/icon </metadata>
<g><path d="M500,10C229.4,10,10,229.4,10,500s219.4,490,490,490s490-219.4,490-490S770.6,10,500,10L500,10L500,10z M435.8,741.7c-49,48.9-128.6,48.9-177.6,0c-49-49-49-128.6,0-177.5L384,438.4c49-48.9,128.6-48.9,177.6,0c1.3,1.3,2.6,2.6,3.8,4c0.8,0.7,1.4,1.2,2.2,2c2,2,3.6,4.2,4.9,6.5c0.1,0.2,0.3,0.4,0.4,0.7l-0.1,0.1c6,11.4,4.3,25.8-5.4,35.3c-9.6,9.6-24.2,11.4-35.5,5.1c-0.8,0.9-8.6-7-12.9-11.2l0,0c-25.6-25.6-66.8-25.8-92.4-0.2L300.7,606.6c-25.6,25.6-25.6,67,0,92.5l0,0c25.6,25.6,67,25.6,92.5,0l75.8-75.8c26.4,12.9,57.3,13.3,83.9,1.1L435.8,741.7L435.8,741.7L435.8,741.7z M741.7,435.8L615.9,561.6c-49,49-128.6,49-177.6,0c-1.3-1.3-2.6-2.6-3.8-4c-0.8-0.7-1.4-1.2-2.1-2c-2-2-3.6-4.2-4.9-6.5c-0.1-0.2-0.3-0.4-0.4-0.7l0.1-0.1c-6-11.4-4.3-25.8,5.4-35.3c9.6-9.6,24.2-11.4,35.5-5.1c0.8-0.9,8.6,7,12.9,11.2l0,0c25.6,25.6,66.8,25.8,92.4,0.2l126-126c25.6-25.6,25.6-67,0-92.5l0,0c-25.6-25.6-67-25.6-92.5,0l-75.8,75.8c-26.3-12.8-57.3-13.3-83.9-1.1l117-117.1c49-49,128.6-49,177.6,0C790.7,307.3,790.7,386.9,741.7,435.8L741.7,435.8L741.7,435.8z"/></g>
</svg>